<?xml version="1.0" encoding="UTF-8"?>
<svg version="1.1" viewBox="0 0 821 818" width="821" height="818" xmlns="http://www.w3.org/2000/svg">
<path transform="translate(0)" d="m0 0h821v818h-821z" fill="#50AEF7"/>
<path transform="translate(482,359)" d="m0 0h315l8 5 2 3 1 6-3 6-5 3h-79l-3 16-1 3 8-2 19 1 14 4 4 2 1 2 4 2 5 5 3 5 4 8 2 9v17l-2 9-5 8-8 4h-7l-7-4-2-4 2-9 2-6v-16l-3-8-5-4-6-2h-22l-15 5-11 8-4 2 11 9 3 1 5 5 5 4 3 1 1 2 4 2 1 2 3 1 2 3 3 1 1 2 3 1 2 3 3 1 5 5 6 4 1 2v15l-5 6-3 1h-8l-8-7-7-8-15-14-11-9-14-11-11-7-7-3-10-2-5-3-4-8 1-9 5-6 3-2h20l9-6 6-9 4-12 2-10h-36l-1 5-5 3h-14l-5-3-2-2v-3h-9l1 50 2 39 1 16 14 7 10 13 4 13v15l-3 10-7 11-8 8-14 8-11 4-11 2h-25l-17-3-13-5-10-6-10-9-7-8-8-14v-9l4-5 4-2h9l3 1 5 5 3 9 8 11 8 6 7 2v2l20 2 18-1 10-3 10-6 6-9 1-3v-15l-3-4-9-2-3-3-3-1-2 6-3 6-3 2h-8l-6-3-5-6v-10l6-8 7-6 2-1 1-13v-84l-1-9h-39l13 21 10 19 4 13v10l-3 10-6 9h-2v2l-10 7-14 6-10 2h-18l-11-4-8-6-4-5-2-5v-7l3-7 6-8 10-9 15-10 14-7h2l-6-12-11-17v-2h-44l-5-3-4-5-1-2v-7l3-4z" fill="#FBC753"/>
<path transform="translate(155,351)" d="m0 0 13 1 6 4v2h11l2 1v5l-2 4-3 12-7 25-9 31-2 5v5l-3 4-1 9-2 4-1 12-2 4-1 7-2 5v8l-4 8-5 15h-2v-7l-2 5-1 10-5 1v-5h-1l-1 7-3 2-8-6-1-4 6-18-3 2h-3v11l-4 1-1-6-7 4-4 2 3 2-1 3-9 3v2l-18 2-12 1h-37l-11-3-1-2 1-2h-3v-2l5-2-6-3-4-4 1-10v-3l2-1 2-5 7-2 11-24 10-18 6-11 7-11 2-5 6-9 6-8 2-5 2-3-12 2h-12l-9-3-2-3-4-2 1-2v-7l-2-1 1-10 3-7 6-3 5-1 43-4 5-1h18l6 4 5 1 1 2 7 1 1 4h-3v8l-4 12-10 12-9 13-13 19-13 20-16 28-6 10-1 3 36-3 6 3 2 3 10-1 2-5 4-23 6-25 5-21 6-21 4-16 3-11 3-12 3-9z" fill="#FDFEFE"/>
<path transform="translate(313,351)" d="m0 0h10l5 1 5 7 4-4 7 2v12l-5 15-6 23-3 9-3 13-5 18-4 16-2 12-2 10-5 23-6 14-2 5-1 7-4 1-2 3-4 1v2l-6 1-7-4 1-4-3 3-6-2-6-10-1-7-3-5-1-5 1-3-3-1-3-9-1-6 1-2-3-1-2-7-3-5-2-7v-4h2l-4-6-3-5v-8l-1-4-3-3-1 7-8 33-7 25-3 10-4 15-2 6h-3l-1-2-3 1-1 2h3l1 5h-5l-1 3h-5l-1 3-3-2-3-1v-2l2-1-2-2-2-8-4 4v-2l-2-1-2-6 4 1-1-1-1-2v-13l1-1 3-15 6-24 4-10 1-9 3-7 3-16 4-16 5-13v-7l2-3 2-12 3-9 5-5 3-2 13 2 5 5h2l1-2h5l3 4 4 4 4 9 3 9 2 7 2 3 3 14 1 3v3l3 3 4 13v6h2l1 7 4-14 3-15 7-24 3-13 3-9 5-18 4-5z" fill="#FDFEFE"/>
<path transform="translate(415,347)" d="m0 0 10 1 10 4 7 7 10 5 5 9 2 13-1 10-2 18-4 1-2 5-3 5-1 2-3-1v-4l-3 3-4 7-10 1-7-6v-7l-3-2 1-33-10 9-10 14-14 25-10 21-6 19-2 16 1 10 9-3 7-6 8-10 1-2-6-1-1-5h-3l-1-10-2-4 7-14 34-4h18l9 4 4 4 5 2h4l-1 3-2-1 1 5-5 2 2 2-1 5-7 2h-6v2l5 1-2 3-5 1-1 10-3 11-3 1 2 7-2 1v6h-2l-2 11-1 13-3 7-1 7h-2l-3-6 1-7-2-1 6-12h-2l-3 8-4 2 2 2-1 3-2-1-1 5-2 4 1 3h-2l-1 5-8-1v-10l1-2h2v-2h-2l-2-4-2 13h-2l-2-6-1-2v-9l-8 3-8 4-4 1h-9l-17-4-8-7-7-7-4-11v-8l-1-5v-9l4-20 5-15 10-24 12-22 11-18 3-4h2l2-5 9-10 13-13 14-8z" fill="#FDFEFE"/>
<path transform="translate(132,371)" d="m0 0 4 2h2v2l6 1-3 15-5 19-7 25-2 10-6 25-4 23-2 6-11 1-2-4-8-2-20 2h-14l1-5 14-24 10-17 10-15 11-16 12-17 10-13 3-10z" fill="#53AFF8"/>
<path transform="translate(456,371)" d="m0 0 4 1 5 9 2 13v7l-1 3-2 19h-4l-2 5-2 2-2 5h-3v-5l-2 1-4 8-7 2h-19l-34 4-6 13 2 4 1 7-1 3h3l1 5 6 1-2 5-12 13-6 3h-5l-2-12 2-14 8-24 11-22 13-22 9-12 7-7 4-2-1 27-1 7 4 2v7l4 3v2l12-1 5-9h2l1 4 2 1 2-6 2-2 1-9h1v5l3-1 2-18 1-10z" fill="#96CFFB"/>
<path transform="translate(345,363)" d="m0 0 7 2 1 3-2 12-7 24-3 12-3 9-3 12-8 31-2 13-2 5-3 17-3 14-2 3-3 9-2 4-2 10h-4l-2 3h-4v3l-6 1-6-4v-6l4 1-1-3 5-1 2-4v2l3-1 1-7 3-7 5-12 5-23 6-30 4-14 3-12 5-21 3-9 6-21 3-11v-3z" fill="#95CEFA"/>
<path transform="translate(185,365)" d="m0 0 10 2 1 4-3 6-2 9-12 42-5 16-2 5-1 7-2 2v7l-3 6v3l-1 10-2 9-3 7v8l-3 4-6 18h-2l1-7-3 4-1 11-4 2-1-5-2 7-5 1-6-5-5-6 6 2 1-1 1-7h3l-1 5 4-1v-6l2-8 3-2v6l-1 2h2l3-12 4-9 2-12 2-7 1-4 2-12 1-5 2-5v-7l3-4 1-8 3-8 12-41 4-14z" fill="#96CFFA"/>
<path transform="translate(571,381)" d="m0 0h23l1 1v9h-30l12 20 8 14 6 15 1 5v10l-3 10-6 8-9 8-12 6-11 3-7 1h-11l-12-3-10-6-4-4 1-2 11 4h18l13-3 16-8 3-3h2v-2h2l7-14 1-5v-10l-5-15-10-19-11-17v-2z" fill="#9ABEBE"/>
<path transform="translate(644,502)" d="m0 0 4 2 8 9 5 11 1 5v17l-4 11-7 10-10 9-16 8-12 3-8 1h-17l-16-2-16-5-13-7-9-8h3l13 6 9 3 14 2h25l14-3 12-5 11-7 7-7 7-12 2-8v-15l-4-13z" fill="#9ABDBE"/>
<path transform="translate(132,371)" d="m0 0 4 2h2v2l6 1-3 15-4 15-1-4v-3l-11 14-13 19-15 22-24 40 1 2h-14l1-5 14-24 10-17 10-15 11-16 12-17 10-13 3-10z" fill="#95CEFA"/>
<path transform="translate(670,381)" d="m0 0h17l5 1-1 10h-60l1 71 2 29-5-2-6-3-2-31-1-24v-50h9l3 5 4 2h14l4-2 2-5z" fill="#9DC0C1"/>
<path transform="translate(233,436)" d="m0 0 2 1v2l3 1 1 5v7l2 4h-2l-1 9-9 36-6 19-2 8-2 7-3 7-2-1v-2l-4 1-1 3 3-1 1 5h-5v3l-5 1-2 3-1-2-6-2 3-3-3-3v-2l5-1 1-2h5l-1-5h-3l2-4 3 1v2h3l1-6 4-15 7-23 9-37 3-13z" fill="#95CEFA"/>
<path transform="translate(807,367)" d="m0 0 8 6 3 4v7l-4 6-2 1h-81l-1 7h7l2 2h-14l-8 1 2-12 1-7 1-1h79l5-3 2-6z" fill="#9ABCBA"/>
<path transform="translate(457,456)" d="m0 0 7 2 4 1-1 2h-3l1 4-5 1 2 3-1 5-3 2-10 1v2h5l-1 3-5 1-4 16-1 5-2 2 1 6-3 1 1 6-2 1-2 10-1 14-3 7-1 7-2-1-3-6 1-5 1-1-3-3h2l3-9v-2l-3 3-1-3 1-9 2-12 3 1-1-6 2-2-1-1v-5l3-3 1-2-2-1h2l2-16 7-3-4-2v-2l12-2 1-5-2-2z" fill="#95CEFA"/>
<path transform="translate(123,507)" d="m0 0h2l-3 11-3 8-7 3-5 1 7 1-1 3-8 4-3 2-21 2h-46l-10-3-2-5-1-2 7 1h37l25-2h5v-2l9-4v-2l-8-1v-1l8-2 6-3 3-1 1 6 3-1 1-11z" fill="#95CEFA"/>
<path transform="translate(456,371)" d="m0 0 4 1 5 9 2 13v7l-1 3-2 19h-4l-2 5-2 2-2 5h-3v-5l-2 1-4 8-7 2-7-2-4-4v-2l9-2 5-9h2l1 4 2 1 2-6 2-2 1-9h1v5l3-1 2-18 1-10z" fill="#95CEFA"/>
<path transform="translate(415,401)" d="m0 0h1v17l4 2v7l4 3v2l3 1 5 7-4 1h-9l-16 2h-13l2-5 10-18 10-15z" fill="#54AFF8"/>
<path transform="translate(774,419)" d="m0 0h2v2l4 2 6 8 4 10 1 4v21l-4 11-5 5-7 3-7-1-5-3-3-4v-2l9-2 6-4 4-9 1-6v-17l-3-11z" fill="#9CBFC1"/>
<path transform="translate(718,421)" d="m0 0h22l8 3 5 6-4 1h-17l-15 4-6 3-10 8h-3l-11-8 3-3 15-10z" fill="#9ABCBB"/>
<path transform="translate(553,432)" d="m0 0 2 1 1 7-4 8-8 7-9 4-7 2h-9l-1-3 7-8 10-8 16-9z" fill="#9BBDBC"/>
<path transform="translate(484,382)" d="m0 0h43l5 9h-41l-6-5z" fill="#95B9B5"/>
<path transform="translate(257,373)" d="m0 0 5 5h2l4 11 5 12 4 14 3 9v5l3 3 2 5 1 3-3 12-2-2v-7h-2l-3-12-2-9-3-1v-5l-3-8-1-7-3-5-1-5-6-15z" fill="#96CFFB"/>
<path transform="translate(571,381)" d="m0 0h23l1 1v9h-30l1 6-6-5-5-8v-2z" fill="#9DBDBB"/>
<path transform="translate(387,531)" d="m0 0h4l1 11-12 5h-12l-16-4-9-8 2-1 17 4h9l11-4z" fill="#96CFFB"/>
<path transform="translate(750,488)" d="m0 0 4 2 5 5 2 4v9l-3 6-4 3h-10l-6-4-3-5 10-2 4-5z" fill="#99BDBD"/>
<path transform="translate(606,508)" d="m0 0 4 1 5 3 7 2 1 2-6 1-2 5-4 8-4 2-9-1-6-4-3-4 1-2h8l3-2z" fill="#99BCBC"/>
<path transform="translate(670,381)" d="m0 0h17l5 1-1 10-42-1 1-2 4-2 2-5z" fill="#9ABCB8"/>
<path transform="translate(420,522)" d="m0 0 3 1-4 8-2 3 1 1v4l1 6 1 4-3 5v4l-2 5-4-2-4 1-1-5 1-2h-2v2l-4 1 1-6 5 2 1-5h2l-2-5 3-4 1-3h2v-2l-2-2 2-4v3l3-2 2-7z" fill="#99D0FA"/>
<path transform="translate(379,466)" d="m0 0h3l-1 6h3l1 5 6 1-2 5-12 13-4 1v-10z" fill="#5AB2F8"/>
<path transform="translate(44,401)" d="m0 0 6 1h12l12-1-2 4-2 6-4 1-9-1-9-3v-3l-5-1z" fill="#96CFFB"/>
<path transform="translate(653,447)" d="m0 0 11 2 11 6 13 10 7 6h-3l-11-8-11-5-10-2-6-5z" fill="#95BAB8"/>
<path transform="translate(534,527)" d="m0 0 5 2 5 6 3 10-4-2-8-11z" fill="#A9C9D3"/>
<path transform="translate(277,533)" d="m0 0 2 1-2 4 6 2 1 5h-5l-5-6v-2l-4-1h5z" fill="#96CFFB"/>
<path transform="translate(398,530)" d="m0 0h1l1 9h2v2h-2l-1 12 2 1h-3l-1-7h-1v-8z" fill="#89C9FA"/>
<path transform="translate(117,498)" d="m0 0 1 3 3 1-1 2h-2l-1 4-3-2v3h2l-1 4-3-1 1-9 3-1z" fill="#80C4FA"/>
<path transform="translate(562,393)" d="m0 0 3 3h3l5 8-1 2h-3l-7-11z" fill="#B0CFDD"/>
<path transform="translate(123,507)" d="m0 0h2l-3 11h-3v-9z" fill="#8FCBFA"/>
<path transform="translate(329,464)" d="m0 0 1 4-3 14-2-1v-10z" fill="#6DBBF9"/>
<path transform="translate(226,416)" d="m0 0 4 2-1 9-3 3z" fill="#96CFFB"/>
<path transform="translate(428,530)" d="m0 0h3l-2 5-3 7h-3l2-7z" fill="#5CB3F8"/>
<path transform="translate(178,509)" d="m0 0h1l1 15h2l-1 2h-3l-2 1v-6h1z" fill="#8FCBFA"/>
<path transform="translate(141,379)" d="m0 0h2l-1 8-1 4h-2l-1 2 1-6 1-7z" fill="#63B7F8"/>
<path transform="translate(730,391)" d="m0 0 1 4-1 3h7l2 2h-10l-1-2z" fill="#B4D8F6"/>
</svg>
