<?xml version="1.0" encoding="UTF-8"?>
<svg version="1.1" viewBox="0 0 2037 2048" width="796" height="800" xmlns="http://www.w3.org/2000/svg">
<path transform="translate(0)" d="m0 0h2037v2048h-2037z" fill="#051F40"/>
<path transform="translate(1201,898)" d="m0 0h482l71 1 24 1h28l69-2h106l14 4 6 4 6 7 4 8v14l-5 10-8 7-5 2h-198l-5 28-5 18-1 2 12-3 11-2h28l24 4 21 7 16 8 11 8 16 16 7 10 9 19 4 14 3 20v22l-4 23-5 13-6 10-6 7-8 5-12 4h-10l-13-4-9-6-5-7-1-10 4-13 5-14 2-11v-12l-1-22-5-13-6-9-7-6-11-5-14-3h-31l-19 3-20 6-15 6-12 10-15 10-10 5 5 4 18 13 27 21 26 20 15 12 26 20 11 9 12 9 10 9 6 10 1 8v16l-3 10-6 9-8 5-2 1h-22l-11-7-11-11-7-8-5-6-2-1v-2l-4-2-16-16-11-9-13-12-11-9-15-13-13-11-16-12-18-13-16-9-11-5-5-2-20-3-9-4-8-6-5-7-4-12v-9l4-13 8-11 9-6 4-2h23l11 2h9l12-5 12-9 8-8 8-13 6-14 5-16 5-24v-5l-22-1-62 1h-92v122l1 32 1 6 2 52 2 23 2 26 18 8 13 9 10 9 9 10 6 8 8 16 5 17 2 10v27l-5 22-8 18-8 12-9 11-12 12-17 12-23 12-24 8-16 4-30 4h-22l-38-4-25-5-23-7-20-9-15-9-9-7-12-11-14-14-12-16-12-20-6-13-1-4v-16l4-8 7-6 8-4 4-1h15l12 4 8 6 6 9 7 18 10 16 11 13 11 8 11 7 17 7 24 6 22 2 3 1h11l3-1 25-2 22-6 16-8 10-6 7-6 10-14 5-12 3-13v-17l-4-12-6-9-7-8-12-7h-11l-5 4-14 28-6 4-5 1h-11l-10-2-13-8-7-7-4-8-1-4v-12l4-11 8-12 12-12 13-8 3-2 1-31v-210l-1-2v-21l-97 1 5 9 10 16 11 18 14 24 13 25 8 20 6 23v19l-4 17-6 14-8 12-11 12-8 7-15 10-16 8-24 8-20 4-10 1h-24l-19-3-19-7-9-5-15-13-8-11-4-10-1-6v-9l3-12 6-12 9-11 9-10 13-12 13-10 18-12 22-13 32-16-1-4-11-19-9-15-11-18-9-14-3-5-107-1-11-4-5-4-7-11-5-14 1-6 5-8 6-5 9-3z" fill="#FDC557"/>
<path transform="translate(385,876)" d="m0 0 6 1 4 2 19 1 12 6 4 5 1 2 25 1 6 3 3 5-2 5-7 15-3 17-7 23-7 26-9 31-10 35-11 36-2 3-1 7-3 4 1 10-4 5-2 1-1 18-3 10-4 5h-2l3 5-2 6-1 1v13l-2 11-4 8v12l-2 4-2 2 1 3-5 10v6l2 4-1 7-8 14-13 41-2 4-4-1 1-5 1-1v-12l1-3-3 2-3 8h-2l-1 5 1 1v5l-4 7 1 5 1 4-3 6-2 2h-7l-4-1-2 4-6 5-6-1-10-8-5-5-2-4v-7l5-18 8-26h-4l-1 4-9 3 1 22-3 6h-6l-4-9-2-4v-3h-2l-2 4-5 4-18 8h-13l3 2h13l6 4-2 4-9 4-11 6-3 3-1 2-13 2-4 1-27 1-7 1h-4l-2 1h-6l-6-1-1 1h-45l-6-1-3 1-18 1-26-1-24-6-4-2 1-6-7-4 5-5 4-3 9 1v-2l-13-2-15-13-2-3v-7l4-4-1-10 4-9-3-1v-3h4l2-7 8-7 11-1 8-16 13-28 14-28 10-18 11-19 3-7 7-9 2-7 3-3 15-25 4-10 10-14 10-18 8-9h2v-2l2-1-1-6 10-16-11 2-31 4h-9l-17-4-16-6-2-7-8-2-4-4 5-6v-13l-7-6 1-12 3-12 4-5-2-6 3-5 10-6 14-3 13-2 25-1 16-2 23-2 14-2 18-1 14-3 44-1 11 6 10 6 9 2 2 4h3l-1-3 5 1-1 2 11 2 5 6v3l-9 2 1 12-6 17-2 13-11 15-12 15-26 36-14 20-18 27-12 17-26 42-9 15-15 26-13 22-8 13-8 17-1 3h32l4-2 18-1 10-2 20-1 5-1 17 9 2 6 3 1h8l13-5 4 4 5-19 1-9 2-4 1-13 2-4 3-21 8-36 5-21 5-15 4-22 9-33 5-17 7-29 3-14 8-27 5-20 7-21 4-23 4-9 4-5z" fill="#FDFDFB"/>
<path transform="translate(778,876)" d="m0 0 11 1 8-1 7 3 9 1 9 11 2 2 1 6 9-9 2-4 4 1 5 4 8 1 2 5-2 13v10l-5 15-13 44-7 26-4 15-8 26-2 6-1 12-7 22-3 15-4 12-11 46-1 15-6 17-1 2-3 24-7 31-5 22-5 9-3 13-8 15v4l-3 5-2 2-1 16-3 2h-5l-4-8 1-5v-1l-16 3v2l5 1 5-3h3l3 8v6l-5 4-3 1h-7l2 6h-8l-3 3-4-1-17-10 1-6 2-4-5 2v6l-10-1h-4l-8-11-10-17-3-9-2-10-3-3-5-16 1-10-6-5-1-7-7-12v-3l2-2-5-11 2-4-3-3-4-3-1-3v-8l-3-1 1-7-9-12-1-9-5-14v-3l3-1 4 2-7-9-3-4-1-5-3-2-2-7-3-6-1-10 3-3-2-2-1-10-5-2-3-2-1-5-1 13-12 49-8 34-8 32-9 29-7 26-6 12-3 22-3 8-2 3-1 6-4 8-4-2-4-5-5 1-3 3-2 5 6-1 3 5v8h-10l-2-1v7l-2 2-12-1v6l-1 2-3-1-3-5h-9l-1-3-4-2 1-1h12l-4-4-4-2-3-9-1-9-2-5-3-1 1 6-6 7-2-1 1-7h-5l-4-9-3-1v-6l3-1 2 3h-3v2l9-1 2 1-5-5-3-5v-29l3-3 5-24 15-65 5-13 5-9-1-10 4-1 2-22 3-6 1-7 3-3 3-14 3-19 6-23 3-18 9-18h-2l1-6 5-8 3-11v-16l5-4v-8l6-27 3-4-1-4 5-14 6-7 10-8 11 2 3 1 20 1 15 14 3-1 3-5 2-1h9l9 8-1 6h2l1-3h3l6 13 5 14 5 8 2 10 7 16v9l7 10 2 12 4 20 4 8-1 7 1 3 5 1 4 11 3 12 4 13 2 8v6l4 3 3 16 1 2 6-22 4-14 1-14 4-10 2-9 3-13 4-11 5-21 8-24 2-7 2-17 4-6 3-14 13-48 3-6 11-11z" fill="#FDFDFB"/>
<path transform="translate(1032,868)" d="m0 0h13l20 5 13 5 11 9 10 11 13 7 8 2 7 10 7 11 5 22v31l-3 14-1 21-2 5-1 13-4 3-5-1-1-3-1 5-2 9-8 8-1 7-4 4-5-1-2-10-4 1-11 22-1 1h-11l-8 2-9-1-10-11-5-4 1-5 2-3v-5l-4-6h-5l-1-2v-13l2-9 1-58 1-3-11 8-13 12-7 8-16 24-16 26-12 21-13 24-8 16-11 23-12 34-8 28-3 16-1 11v12l3 14 1 8h8l16-8 10-8 9-12 12-12 7-12-12-1-5-4-2-8-9-3 1-4 3-3-1-7-2-9-6-5v-6l12-28 4-6 7-2 13-2 5 1 3-1 17-1 8-2 28-1 3-2h7l5 2 11-2h21l16 4 8 5 10 9 4 2 5 1 3 4 1-1h10l2 2-1 4-2 1h-5v3l2 6-8 3-6 3v2l5 4-1 9-4 5-17 3-12 2-1 3 12 1 1 5-7 3-11 2-1 4 2 1-1 9-5 21-4 16-2 4-4 2v11l2 2-1 5h-6l1 10 1 1v6h-4-1l-1 10-4 10-1 6 2 2v10l-1 13-1 12-4 9-4 6 1 5-1 2v8l-5 2-5-11-4-5v-10l4-6h-3l-1-4-3-1 1-4h2v3h2l1-11 6-12 6-7-6 2-2 1 1-4h-2l-2 9-4 15-3 2-5-1v-7h-2v8l-1 4 5 2 1 1v6h-9l1 3-3 7-4 5-3 5 6 5-5 5-3 8-1 5-6-3-1-3-6 2-7 1v-25l4-6 5-2v-2l-5-1-2-2-2-12-1-11-2 21-1 3-1 22-5 1-1-1-1-8-5-7-2-9v-14l-2-2-9 1-23 12-15 5-5 1h-15l-25-6-11-3-11-2-8-7-12-11-11-11-7-11-6-15-1-6-1-25-2-9v-20l7-40 5-19 9-25 14-35 8-21 11-21 14-24 12-22 14-24 10-16 7-8 7-9 2-5 5-4 6-8 12-14 14-14 8-7 11-10 13-9 22-12z" fill="#FDFDFB"/>
<path transform="translate(328,927)" d="m0 0h5l-3 1 3 6h6l4 2 8 2 3 2 3-3-1 5-8 31-6 19-5 23-6 25-7 23-7 28-3 16-6 19-9 42-4 19-1 10-2 4-1 13-2 4-2 13-4 16-5-4-13 5h-8l-4-2-1-5-17-9-5 1-20 1-10 2-18 1-4 2h-24l-8-1 1-5 9-19 15-24 13-23 13-22 16-26 15-23 13-19 21-31 12-17 14-19 12-16 8-10 10-14 3-16 5-14v-12z" fill="#072041"/>
<path transform="translate(1130,922)" d="m0 0 3 1 2 3 5 2 6 7 8 15 3 14 2 11 1 21-2 13-1 3-1 22-3 9-1 13-2 1h-6l-1-10h-1l-1 18-7 8-3 4-1 7-5 3-3-2-2-9-4 1-8 15-3 6-5 3-9-1v2l-8-1h-21l-12 2-4-2h-7l-3 2-28 1-8 2-17 1-5 1-5-1-17 3-5 8-11 26v6l6 5 3 12-1 5-3 3-1 3 9 2 4 10 3 2 12 2-2 6-7 9-11 11-8 11-11 9-15 7h-8l-1-1-3-17-1-5v-12l2-18 6-24 12-36 8-20 9-19 10-19 10-18 8-14 17-28 14-21 9-12 11-11 14-11 3-1-1 4-1 58-2 9v15l5-1 5 7v5l-3 4 1 5 10 9 3 4 9 1 11-2h8l8-15 4-8 4-1 2 7 1 4h6l2-10 8-8 2-10 1-12h1l2 11 6-1 1-1 1-13 2-5 1-21 3-14v-31l-5-22z" fill="#6C7789"/>
<path transform="translate(853,892)" d="m0 0h2l1 2v12l12 6 6 1 1 2v8l-1 7v10l-4 11-18 63-6 23-4 12-4 13-3 10-1 11-6 20-5 21-5 18-9 41v9l-4 14-4 8-3 22-7 31-3 12-1 9-7 14-2 10-7 14-2 2v6l-5 5-1 16-1 1h-6l-4-8 1-4v-2l-17 3 2 4 5-1 6-1 3 6v7l-5 4-10 1 2 5-9 1-2 2-4-1-14-8-1-1v-6l1-1v-6l4-1 5 1-2-6 10-2 4-3-1-9-1-5-7 3-3 1-4-2 1-3 17-3 1 2-2 1 1 6 2 5 7-1 1-16 5-6-1-4 5-8 5-11 3-12 5-10 5-23 6-27 3-24 6-15 1-4 1-15 12-50 4-11 3-15 6-19 1-12 7-21 3-11 16-58 11-37 2-5v-10l2-15z" fill="#6C7789"/>
<path transform="translate(464,904)" d="m0 0 1 2-4 8h11l9 3 4 4-1 6-7 15-4 20-8 27-8 30-10 33-9 32-8 25-2 3v6l-5 7 1 11-6 5-1 20-4 10-3 3 1 9-3 3v6l1 5-3 14-3 5v13l-3 5h-3v2h2l-1 7-4 8 2 7v7l-8 14-10 31-5 14-4-1 3-5v-14h-3l-5 10-1 1v5 4l-4 8 1 4 1 1-1 7-3 3h-9l-1-2 2-8v-8l-2 6-1 11-3 6-6 4-7-2-10-9-4-4-2-6 6-3 5-6h11l3-4 1-5-2-3 1-6 3-5v-5l-1-2 2-4 2-1 3-8 3-1v15l-2 3v3l3 1 3-10 11-35 9-16-1-7-1-2v-6l5-10-1-4 3-2 1-3v-12l4-8 2-11v-13l3-5-2-4v-3l5-5 3-10 1-18 5-4 1-5-1-7 4-6v-6l3-5 10-33 14-49 8-27 7-26 5-17 3-16z" fill="#6C7688"/>
<path transform="translate(1382,954)" d="m0 0h97l1 23-31 1h-45l11 18 15 23 13 22 14 26 8 19 6 19 2 7v21l-4 17-9 19-10 13-9 9-13 10-16 9-20 8-15 4-9 2-24 2-23-1-11-2-16-5-15-8-9-7-8-8-3-6 6 2 19 7 19 3h24l22-3 21-6 18-7 14-8 16-12 9-9 9-13 6-12 4-13 2-9v-19l-6-23-10-24-13-25-13-22-13-21-10-16-2-4z" fill="#695F48"/>
<path transform="translate(1608,1258)" d="m0 0 5 3 12 12 10 15 6 13 5 16 2 10v29l-5 19-6 15-10 16-8 10-12 12-15 11-14 8-17 8-18 6-25 5-13 2h-42l-31-4-20-4-20-6-19-8-16-9-17-12-9-8-4-7 6 2 13 8 21 9 24 7 21 4 38 4h22l30-4 26-7 16-6 21-11 14-10 10-9 7-7 11-15 8-16 5-14 3-15v-27l-4-18-6-16-5-9z" fill="#695F48"/>
<path transform="translate(328,927)" d="m0 0h5l-3 1 3 6h6l4 2 8 2 3 2 3-3-1 5-8 31-6 19-1 5-2-4-9 11-12 15-14 19-13 18-17 25-8 12-9 13-13 19-13 21-15 24-9 16-14 24-15 25v4h-24l-8-1 1-5 9-19 15-24 13-23 13-22 16-26 15-23 13-19 21-31 12-17 14-19 12-16 8-10 10-14 3-16 5-14v-12z" fill="#6C7788"/>
<path transform="translate(1699,953)" d="m0 0 22 1 1 1-1 10-3 12-11 1h-139l1 120 1 36 1 2 1 36 4 55-5-2-18-8-1-1-2-26-2-23-2-52-1-6-1-32v-122l1-1h92z" fill="#695F49"/>
<path transform="translate(579,1088)" d="m0 0h1l1 7 7 4 2 10 2 2-3 1 1 12 4 8 1 5 2 2h-3l-1 7-7 30-6 23-7 31-13 44-5 19-7 15-2 18-3 9-2 2h-3v2l3 1-2 6-3 6h-3l-6-7-5 2-4 5v2h6l2 3 1 9-1 1h-8l-3-2-1 9h-13l-1 7-3-1-1-3-5-1-7-1-1-2-3-1v-2l12-1 1-2-5-2-5-4-2-2h-1v-6h12l1-1 1-7 12 1-2-11-4-1h-3l1-5 5-5 5 1 5 6h2l5-13-3-1 4-2 3-8 3-22 7-15 9-33 9-30 7-30 16-66 2-8 1-13z" fill="#6C7788"/>
<path transform="translate(2011,922)" d="m0 0 1 3 7 1 9 7 7 10 1 3v9l-4 11-8 9-8 3h-100l-98-1-1 14-1 5h18v1l-27 1-23 4 4-16 5-25 1-7 1-1h198l8-4 6-7 3-7z" fill="#695F48"/>
<path transform="translate(1134,1130)" d="m0 0h5l-4 3 3 7 7 1 3 4 10-1 3 1 1 5-7 2 1 8-2 2-11 4-2 2 7 5-1 7-4 6-7 2-23 4v3h8l4 1v5l-7 3-10 3-2 3h3l-1 6-3 15-4 16-3 1-3-1v2l5 1-1 6-3 5-4 1v9l3 6v3h-7v9l2 4-1 5-3-1v-3l-2 1v10l-3 10-3 5 1 4 1 1v15l-2 6-1 15-7 17-1 13-1 2-3-1-4-10-4-6v-9l5-6 1-3-5 1 2-14 5-12 6-9-8 1-2 4-2 12-2 2 1-15 1-13v-10l-2-2 1-6 4-10 1-10 1-3 1 3h4l-2-7v-10l6-1-1-5-1-1v-11l5-3 2-5 3-14 5-21 2-9-3-1 2-4 17-5v-4l-12-2-1-3 9-2 19-3 4-2 3-6v-6l-6-5 5-4 10-3-3-8z" fill="#6C7789"/>
<path transform="translate(303,1266)" d="m0 0h4l-1 7-6 19-5 18-1 7-1-4-20 8h-16v2l13 1h6l5 3-1 5-16 7-7 4-2 4-21 3-33 1-5 2-8-2-6 2h-37l-10-2-5 2h-36l-19-3-15-5 1-7-5-2-2-3 1-4 7 1 5 1 29 1 15-1 7-1 2 1h45l5-1 2 1h6l5-2 1 1 9-1 25-1 8-2h9l2-5 10-6 11-4 2-4-5-3h-13l-6-2 3-2h13l20-9 5-6h2l6 15h6l2-5-1-22 8-3h2z" fill="#6C7789"/>
<path transform="translate(1130,922)" d="m0 0 3 1 2 3 5 2 6 7 8 15 3 14 2 11 1 21-2 13-1 3-1 22-3 9-1 13-2 1h-6l-1-10h-1l-1 18-7 8-3 4-1 7-5 3-3-2-2-9-4 1-8 15-3 6-5 3-9-1v2l-8-1-20-1v-1h10l-7-8-7-7v-3l13-3h11l8-15 4-8 4-1 2 7 1 4h6l2-10 8-8 2-10 1-12h1l2 11 6-1 1-1 1-13 2-5 1-21 3-14v-31l-5-22z" fill="#6C7789"/>
<path transform="translate(1034 1e3)" d="m0 0h1v25l-1 6v15l5-1 5 7v5l-3 4 1 5 10 9 3 4 4 1 2 5 12 12v2l-10 1-6 2-7 1-4-2h-7l-3 2-28 1-8 2-17 1-5 1-5-1h-5l2-5 8-15 13-23 13-21 12-19 12-17 4-6z" fill="#082142"/>
<path transform="translate(1927,1045)" d="m0 0 7 6 13 13 9 14 7 16 5 21 2 13v21l-4 23-5 13-6 10-5 6-9 6-11 4h-12l-15-5-9-8-3-7v-5h14l16-6 7-6 7-11 5-12 2-7 3-19v-22l-3-20-5-17-10-19z" fill="#695F48"/>
<path transform="translate(1803,1051)" d="m0 0h31l14 3 14 7 7 7 5 9-1 2-7-2-9-1h-34l-22 5-18 6-12 6-17 13-11 7h-4l-18-13-10-7 1-2 12-6 14-10 13-10 25-9 18-4z" fill="#695F48"/>
<path transform="translate(1376,1081)" d="m0 0h4l2 9v9l-4 11-6 9-9 10-14 9-16 7-15 5-9 2h-15l-4-3 1-6 6-8 14-14 19-14 20-12 16-9z" fill="#685E48"/>
<path transform="translate(1200,953)" d="m0 0 109 1 13 20-1 4h-96l-9-3-7-6-7-11z" fill="#695F48"/>
<path transform="translate(1515,1266)" d="m0 0h11l12 7 10 11 1 4-7 2-6 3-6 9-8 18-4 5-9 3h-12l-11-3-10-6-8-8-4-7v-2l10 1h11l9-3 6-10 7-15 4-6z" fill="#695F48"/>
<path transform="translate(632,923)" d="m0 0 3 3 6 8 6 6v7h3l1-3 3 3 10 25 4 7 2 10 8 18-1 6 7 10 1 2 2 15 2 7 2 10 3 4v10l1 3 5 2 5 15 1 4 2 1-1 7-6 22-2 1-4-19-4-3-1-10-4-14-3-10-4-16h-5l-2-4 1-7-4-8-4-20-2-12-7-10v-9l-8-18-2-10-5-8-6-17-3-6z" fill="#6C7687"/>
<path transform="translate(963,1326)" d="m0 0h6l3 3v14l2 10-20 9-18 5h-11l-25-6-22-5-9-6-16-15 2-1 19 4 23 6 5 1h15l15-4 17-8z" fill="#6C778A"/>
<path transform="translate(1867,1217)" d="m0 0 8 6 10 9 6 9 2 6v21l-4 11-6 8-6 4-6 2h-13l-11-4-6-4-6-5-7-8-3-4 1-2 2 1h22l9-5 6-9 3-10v-16z" fill="#695F48"/>
<path transform="translate(1699,953)" d="m0 0 22 1 1 1-1 10-3 12-11 1h-100v-1l11-1 9-5 7-8 2-7h-17v-1l18-1z" fill="#695F48"/>
<path transform="translate(1042,1303)" d="m0 0h2v3l2-2 6-1-6 8-6 12-2 11h-2v-3l-2 1v3h3v5l4-1-2 4-2 3v10l5 6 2 9-3-1-2 5-4 6v3l5 4v2l-5 3-3 6-1 6-4-1-3-4-5 1-2 1h-6v-9l-3-1v-2h2l-1-3h-2l-1 2-5 3-4-1 2-3-1-6-1-2 6-2 1 4 6 2 1-7 3-6 4-4-6-4 5-9 3-3 2-9h9l-2-7-5-2 2-12h2l1 7 6-1 4-16 2-6z" fill="#6E798B"/>
<path transform="translate(944,1161)" d="m0 0h2l1 4v8l-3 5 9 2 4 10 3 2 12 2-2 6-7 9-11 11-8 11-11 9-4 2h-4l2-25 7-28 9-27z" fill="#082242"/>
<path transform="translate(1563,955)" d="m0 0h56l17 1-1 7-7 8-7 5-3 1-11 1h-24l-12-8-6-7-2-4z" fill="#6C778A"/>
<path transform="translate(97,998)" d="m0 0 10 3 17 5 6 1h9l39-5h3l-2 5-7 11 1 6-3 1v2l-4 2h-11l-26-6-9-3-3-3-2-4-10-5-1-5-7-4z" fill="#6C778A"/>
<path transform="translate(1624,1117)" d="m0 0 11 1 10 2 12 5 15 8 14 10 16 12 10 8 13 11 14 12 1 2-4-2-10-8-13-9-20-13-15-8-14-4-16-3-12-5-8-7-4-7z" fill="#695F49"/>
<path transform="translate(1329,1315)" d="m0 0 12 7 5 5 6 10 4 12 6 11 2 3-5-2-9-8-11-15-8-14z" fill="#695F48"/>
<path transform="translate(1515,1266)" d="m0 0h11l12 7 8 9v1h-10l-13-4-10-6-1-5z" fill="#6D788B"/>
<path transform="translate(690,1331)" d="m0 0 2 1-4 6-1 4 5 2 12 7 4 3h-3l-1 6h-12l-6-8-7-10-1-2-3-2 8 1 2 1-1-6z" fill="#6C778A"/>
<path transform="translate(873,923)" d="m0 0h1v17l-4 11-18 63-6 23-4 12-4 13-3 10-1 11-6 20-4 18h-1l1-12 5-19 3-8 1-12 6-18 7-28 5-16 12-41 7-24 1-5z" fill="#695F48"/>
<path transform="translate(289,1245)" d="m0 0h2l1 5 5 3v4l-4 1-3 9h-3l-1-3-6-1v9l4 1v4h-5v3h-2l-1-2 1-21 12-4-1-7z" fill="#2A3E5A"/>
<path transform="translate(560,1040)" d="m0 0 4 1 4 3v5l-2 4 3 1-2 9-5 10h-2l1-14z" fill="#6D788B"/>
<path transform="translate(988,1318)" d="m0 0 2 3 2 19 2 5 5 2v2l-5 3h-2l-1-5h-4l-1 20h-1v-22l1-3z" fill="#6C7480"/>
<path transform="translate(351,947)" d="m0 0h2v7l-7 26-3 9h-2v2l-2-1 3-14 5-15 1-10z" fill="#19304E"/>
<path transform="translate(289,1251)" d="m0 0 1 4-10 4v13l4 1v4h-5v3h-2l-1-2 1-21 12-4z" fill="#6D788B"/>
<path transform="translate(1e3 1378)" d="m0 0 3 1v3l4 2 1 3h-2l-1 2-5 3-4-1 2-3-1-6-1-2z" fill="#8E949E"/>
<path transform="translate(1057,1321)" d="m0 0h1l1 12-2 10-3 6-4 6-1-2 4-9 3-20z" fill="#FDC557"/>
<path transform="translate(683,1023)" d="m0 0 2 2 2 15 2 7 2 10 3 4v13l-2-2-1-6v-5l-3-5-2-11-3-19z" fill="#695F48"/>
<path transform="translate(732,1321)" d="m0 0 2 2-2 1-2 4-1-3-7 3-3 1-4-2 1-3z" fill="#6D788B"/>
<path transform="translate(302,1276)" d="m0 0h2l-1 6-3 10-3 5-1-3 3-16z" fill="#182F4D"/>
<path transform="translate(1031,920)" d="m0 0 1 4-11 7h-3l2-5 6-4z" fill="#6D788B"/>
<path transform="translate(984,1345)" d="m0 0h1v22l-3 1-1-8z" fill="#FDC557"/>
<path transform="translate(1026,1345)" d="m0 0 5 1v8l-4 1-2-1-1-7z" fill="#FDF3DE"/>
<path transform="translate(1114,912)" d="m0 0 3 1 5 15 1 5-2 1-6-17z" fill="#6D788B"/>
<path transform="translate(1137,936)" d="m0 0 2 3 5 12-1 4-2-1-4-12z" fill="#051F40"/>
<path transform="translate(632,923)" d="m0 0 3 3 6 8 6 6v7h-1l-2-7-8-7-4-8z" fill="#696456"/>
<path transform="translate(460,1325)" d="m0 0 2 4v10l-4-1-1-8h2z" fill="#6D788B"/>
<path transform="translate(253,1241)" d="m0 0 1 2 4-1 3 3 4 3h-8l-4-2z" fill="#6B6D6E"/>
<path transform="translate(1050,1360)" d="m0 0 1 3 1 9-2 4-5-3 4-4v-7z" fill="#6B6F74"/>
<path transform="translate(150,1304)" d="m0 0h6l8 3-3 2-4-1-3-1h-5z" fill="#6D788B"/>
<path transform="translate(438,1305)" d="m0 0 5 2 1 3 5-1 1 3h-11v-2l2-1-4-1z" fill="#6C7481"/>
<path transform="translate(237,1321)" d="m0 0 4 1 2 1v4h-6l-1-5z" fill="#384249"/>
<path transform="translate(292,1275)" d="m0 0h1l1 20-2 5h-1z" fill="#FDC557"/>
<path transform="translate(289,1251)" d="m0 0 1 4-10 4-2 3-1-5 12-4z" fill="#6A6A67"/>
<path transform="translate(428,898)" d="m0 0h2l-2 11-2 6h-1l1-11z" fill="#6D788B"/>
<path transform="translate(1063,1274)" d="m0 0 2 1v2l5 1-1 4-4 1-2-6z" fill="#434E5D"/>
<path transform="translate(963,1193)" d="m0 0 9 1-2 6-5-2 1-4z" fill="#6D788B"/>
<path transform="translate(853,892)" d="m0 0h2l1 2v12l2 2-4 3v-16z" fill="#696354"/>
<path transform="translate(212,1302)" d="m0 0h11l-2 5-5-2z" fill="#6D788B"/>
<path transform="translate(346,1284)" d="m0 0 1 3-2 5h-2l-1 5 1 1v5l-2-4-1-4z" fill="#FDC557"/>
<path transform="translate(624,917)" d="m0 0 4 2v2l4 1-3 1-1 4-3-1 1-6z" fill="#636360"/>
<path transform="translate(1065,1309)" d="m0 0h5v4l-4 2-1-1z" fill="#051F40"/>
<path transform="translate(469,1268)" d="m0 0h3l1 10-2 1-2-6-1-4z" fill="#6D788B"/>
<path transform="translate(584,1133)" d="m0 0 2 2-1 7-3 2-1-3z" fill="#051F40"/>
<path transform="translate(209,1302)" d="m0 0 2 1 1 4-11 1v-2l8-2z" fill="#6D788B"/>
</svg>
