<?xml version="1.0" encoding="UTF-8"?>
<svg version="1.1" viewBox="0 0 1992 2000" width="498" height="501" xmlns="http://www.w3.org/2000/svg">
<path transform="translate(1510,878)" d="m0 0h82l121 1 16 1h51l16-1 59-1h78l12 2 10 4 5 5 6 12 1 6 10 1 6 4 6 9 1 3v13l-4 9-7 8-7 3-17 1h-149l-27 1-3 8-1 6 18 1 25 4 18 6 22 12 13 11 12 12 9 11 8 7 7 8 8 14 7 19 4 20 1 8v13l-4 26-5 12-6 10-9 10-8 5-8 2h-12l-10-3-9-6-4-5-4-10-10-3-5-5-4-5-2-5v-7l3-12 5-15 1-11v-23l-2-16-2-4-8-1h-46l-25 7-16 6-9 6-12 10-11 6-1 3 4 2 13 10 10 8 18 14 15 12 8 7 12 10 13 8 18 14 5 4 7 10 5 7 8 7 6 7 4 8 1 4v15l-3 10-6 9-8 7-4 1h-14l-10-4-8-6-7-8-6-7-8-6-9-11-12-11-18-18-8-7-14-12-11-11-15-10-18-13-18-11-12-7-9-3-15-2-15-5-6-4-7-8-3-7-10-5-8-8-6-12-1-4v-11l4-12 4-6 7-6 10-5h22l11 2h9l10-4 8-6 10-10 9-14 7-16 6-20-31 1h-115l1 122 2 37 1 34 3 33v14l5 6 9 7 12 11 19 19 11 15 8 16 6 19 2 13v15l-3 17-3 10-8 16-8 14-9 13-7 7-12 9-16 8-23 11-16 5-23 5-26 3h-25l-2-1-25-2-10-3-11-2-19-5-20-8-24-13-10-8-19-19-8-7-7-7-9-11-10-10-14-21-8-16-2-5-1-13 3-9 5-6 8-5 10-3h11l9 3 9 5 8 9 6 8 10 5 7 8 5 10 7 18 4 6 8 7 27 8 18 4 25 3 11-1 24-2 15-4 23-8 13-9 7-7 8-13 5-15 1-4v-21l-4-10-1-3h-6l-8 6-5 8-10 18-6 5-8 2-11-1-11-4-8-6-13-13-11-8-7-7-5-9-1-4v-11l4-12 13-15 10-9 13-8 2-32 1-203-46 1-26 1 1 5 12 16 11 19 8 16 11 20 8 15 9 24 4 17v15l-4 18-7 16-8 12-12 11-8 7-9 7-15 8-19 7-23 6-8 1h-37l-10-2-19-7-13-8-10-9-9-10-13-9-10-15-5-12-1-9 2-12 4-10 8-13 8-10 10-10 11-9 13-10 11-7 16-9 27-14 12-6-1-5-15-26-10-14-3-5h-92l-10-2-10-9-6-9-1-4-9-4-8-7-6-8-3-11 1-11 5-8 8-4 7-2z" fill="#FBC557"/>
<path transform="translate(377,856)" d="m0 0 6 1 4 2 17 1 12 6 7 8h22l10 5 1 7-4 8 12 1 8 4 1 7-4 9-4 24-11 35-12 43-12 37-10 33-4 10-2 3 1 9-4 6-3 2v15l-3 13-2 4v9l-2 3 1 10-2 10-4 11v12l-1 2h-2l-1 9-5 9 1 4v8l-9 19-10 30-6 11-5-3h-2l-2 6-1 2v11l-4 6-4 1-5 1-7 6-3 1-8-4-9-7-9-11-13-10-6-6h-2l-5 8-3 6-12 5-9 5-5 4-17 3-7 1-30 2h-7l-5-1-2 1-13 1h-28l-1-1h-8l-4 1h-31l-19-3-15-4-7-10-5-7-4-2-8-2-1-2 1-6-5-2v-3l7-3v-2l-6-4-5-6-7-6-1-2v-7l4-7-1-7 3-6-1-8 4-5 2-4 5-3h10l4-4 8-19 14-29 8-14 12-25 13-26 5-5 7-12 10-16 7-12 6-12 9-11 7-17 5-5-17-1-26-7-9-9-6-3-11-12-2-4-8-3v-3l3-5v-14l-6-5v-8l3-15 3-6 2-9 7-6 8-3 22-3 32-2 17-2 16-2 15-2 20-2 8-2 41-1 7 4 14 9 8 1 2 2 7-1 5 4 10 4 1 2v6l-2 3h7l4 5 3 2v18l-2 9-11 29-7 11-10 13-24 32-6 9-5 9-22 33-10 13-10 15-11 18-8 16-8 13-11 17-8 14-15 23-1 2 7-2 17-1 13-2 15-1 7-1 16 9 6 5h11l14-4 2-7 3-27 3-11 5-26 8-37 6-20 3-9 4-20 7-25 7-21 8-33 2-10 5-16 4-24 5-16 4-13 5-25 3-6 12-11z" fill="#FCFCFC"/>
<path transform="translate(761,856)" d="m0 0 8 1 2 1 3-1h8l5 2 8 2 6 7 7 8 4-2 7-8 4 1 3 4 10 1 1 1 1 14 5 2 8 4 5 2-1 13-1 7-1 8-7 24-10 38-7 26-12 39-3 15-9 30-7 24-9 35-3 19-4 15-5 38-6 29-4 13-7 18-7 16-4 11-1 12-2 2-9 2-2 4-12 5-8 5-7-1-18-8-5-3h-7l-5-4-10-15-7-1-4-6-5-10-8-13-4-11-4-10-6-16 1-5 1-2-3-5-3-2-3-10-5-6 1-9-4-7 1-6-7-7-2-10-2-12-8-9-2-14-2-8 3-2-1-5-5-9-2-4-2-1-4 26-16 64-5 17-8 26-6 22-6 12v7l-5 19-5 18-3 1-4-1-1 1-1 13-1 1-11 1-1 5-7 1-5 1-2 2-6-1-4-2-4 1-5-3v-2l6-1-5-5-6-4-3-3-9-2-5-4 1-7-4-2-5-8-4-5-8-14-3-4v-2l6-1-2-15 1-17 4-7 4-18 16-64 5-15 5-8-1-8 3-5 1-18 4-13 3-5 3-16 5-25 5-18 3-14 7-15 1-9 5-10 3-14v-9l4-2 2-16 5-21 6-18 5-9 7-7 2-1 9 1 6 1 17 1 7 3 10 10h3l4-5 7-1 6 3 14 12 8 8 8 7 5 6 11 29 3 12 6 14 2 11 5 8 4 20 4 13 2 3v9l5 5 4 8 3 14 3-8 2-16 5-13 5-19 9-37 3-11 4-17 3-13 3-10 5-19 11-36 5-8 6-5 5-5z" fill="#FCFCFC"/>
<path transform="translate(1010,848)" d="m0 0h12l16 4 13 5 11 7 7 7 5 6 22 12 10 13 10 7 5 5 8 14 3 11 2 10 2 16v11l-3 14-1 19-1 8-2 4-1 11-1 1h-9l-2 9-5 5-4 5-5 10h-3l-4-8-3-1-3 9-7 14-5 1 1 5 5 2 6 7 3 3 15 5 4-1 5 2 1 4-3 2h-5l3 8 4 2 7 2 7 1h6l3 3-1 4-7 2 1 7-3 3-9 4 4 8-1 4-2 3h-2v2l-20 6-2 1 4 3-1 6-13 4-1 3v7l-5 22-5 17-5 8-1 3v7l1 5-5 4v8l1 1v5l-4 1-3 15-1 3v17l-3 13-1 12-5 12-4 8-1 11h-3l-6-10-2-4-7-2v2h-7l-1 4h-2l2 7-5 5-2 3-2 10h-5l-2 4-5 3v-4l6-5-1-1h-11l-4-4-2-10-6 3h-6l2-5 2-4-9-1-3-3v-13l-2 5-5-1-1-8-4-6v-2l-6 2-10 5-11 4-15 3-14-2-21-5-10-3-9-2-9-6-35-35-8-7-4-5-7-14-4-15-1-24-2-10v-12l4-25 6-27 6-20 10-25 10-24 9-22 11-24 8-13 12-22 10-17 16-24 10-13 5-10 10-13 7-8 13-11 9-9h2v-2l8-7 13-12 10-7 23-12zm2 130-5 5-8 11-12 18-13 20-8 14-6 14-12 21-1 3 9-1 4 1 20-2 21-2 15-1 2-2h6l3 2 6-1 16-2 3-2-17-17-6-4-6-8-5-6 3-5-1-6-4-4-4-1 1-19 1-6v-20zm-89 159-4 9-7 19-6 23-3 23-1 6 5-1 11-7 8-8 10-13 8-7 5-9 2-4-12-3-3-2-4-7-7-2 1-5 1-7-2-5z" fill="#FCFCFC"/>
<path transform="translate(377,856)" d="m0 0 6 1 4 2 17 1 12 6 7 8h22l10 5 1 7-4 8 12 1 8 4 1 7-4 9-4 24-11 35-12 43-12 37-10 33-4 10-2 3 1 9-4 6-3 2v15l-3 13-2 4v9l-2 3 1 10-2 10-4 11v12l-1 2h-2l-1 9-5 9 1 4v8l-9 19-10 30-6 11-5-3h-2l-2 6-1 2v11l-4 6-4 1-5 1-7 6-3 1-8-4-9-7-9-11-13-10-6-7 1-1 2-12 6-18 4-14v-3l-5 5-5 1-1 3v15l-3 11h-4l-3-5-2-5-1-5-11 8-9 2 3-3 10-5 3-3h2v-7h-2l-1-2 1-14 1-7 5-3 2-1v-3h-2l-2-5 4-3 4-33 3-11 5-26 8-37 6-20 3-9 4-20 7-25 7-21 8-33 2-10 5-16 4-24 5-16 4-13 5-25 3-6 12-11z" fill="#FCFCFC"/>
<path transform="translate(836,885)" d="m0 0h2v2l5 2 8 4 5 2-1 13-1 7-1 8-7 24-10 38-7 26-12 39-3 15-9 30-7 24-9 35-3 19-4 15-5 38-6 29-4 13-7 18-7 16-4 11-1 12-2 2-9 2-2 4-12 5-8 5-7-1-18-8-5-3h-7l-5-4-8-12v-3h5l11 7 8 4 5-1 6-1h2l3-5 7-2 5-5 6-2h2l1-4 1-13 8-16 5-11 5-15 4-11 9-36 4-18 2-16 4-9 3-10 1-15 6-27 4-21 4-15 5-20 5-19 7-24 7-26 7-23 6-21 9-30 3-9v-10z" fill="#6C7686"/>
<path transform="translate(450,892)" d="m0 0 2 2 12 1 8 4 1 7-4 9-4 24-11 35-12 43-12 37-10 33-4 10-2 3 1 9-4 6-3 2v15l-3 13-2 4v9l-2 3 1 10-2 10-4 11v12l-1 2h-2l-1 9-5 9 1 4v8l-9 19-10 30-6 11-5-3h-2l-2 6-1 2v11l-4 6-4 1-5 1-7 6-3 1-8-4-9-7-6-8v-2l10-5 3-3 10-2 3-3v-11l4-7-1-7 5-12h1v12l-2 9h3l3-10 8-25 7-18 5-6 1-6-2-4 1-7 3-9 5-12-1-8 5-13 1-4v-13l3-4v-6l-2-3 5-5 3-9 1-9v-9l3-2h3l1-7-1-6 4-7 5-21 4-17 15-52 9-30 12-42 4-15z" fill="#6B7586"/>
<path transform="translate(1398,932)" d="m0 0h46l4 2v22l-1 1-44 1-26 1 1 5 12 16 11 19 8 16 11 20 8 15 9 24 4 17v15l-4 18-7 16-8 12-12 11-8 7-9 7-15 8-19 7-23 6-8 1h-37l-10-2-19-7-13-8-10-9-7-8 3-1 17 6 16 3 8 1h19l21-2 16-4 36-14 11-7 13-11 8-11 9-19 5-15 1-5v-17l-5-21-13-36-12-23-9-14-10-13-11-19-5-7v-2l5-1z" fill="#695D45"/>
<path transform="translate(1573,1230)" d="m0 0 7 6 9 10 9 14 6 12 6 19 2 13v15l-3 17-3 10-8 16-8 14-9 13-7 7-12 9-16 8-23 11-16 5-23 5-26 3h-25l-2-1-25-2-10-3-11-2-19-5-20-8-24-13-10-8-12-12v-2l5 2 17 10 20 8 11 3 18 3 47 4h25l38-5 19-5 14-6 13-8 13-9 11-9 10-10 11-14 8-14 5-17 1-7v-36l-3-17-4-11-6-11z" fill="#695D45"/>
<path transform="translate(326,906)" d="m0 0 1 3-1 2h7l4 5 3 2v18l-2 9-11 29-7 11-10 13-24 32-6 9-5 9-22 33-10 13-10 15-11 18-8 16-8 13-11 17-8 14-16 24-1 1h-26l3-10 12-26 11-17 9-14 10-18 8-13 9-14 7-10 10-18 9-13 14-20 11-14 7-10 11-15 6-10 5-9 4-5h2l2-4 11-12 6-9 4-18 4-11 1-9-1-4z" fill="#6B7586"/>
<path transform="translate(1602,933)" d="m0 0h82v7l-4 16-1 1-31 1h-115l1 122 2 37 1 34 3 33v16l-9-3-12-7-1-3-4-57-3-67v-128l1-1z" fill="#695E45"/>
<path transform="translate(1109,1115)" d="m0 0 7 1 7 2 7 1h6l3 3-1 4-7 2 1 7-3 3-9 4 4 8-1 4-2 3h-2v2l-20 6-2 1 4 3-1 6-13 4-1 3v7l-5 22-5 17-5 8-1 3v7l1 5-5 4v8l1 1v5l-4 1-3 15-1 3v17l-3 13-1 12-5 12-4 8-1 11h-3l-6-10-2-4-7-2v2h-7l-1 4h-2l2 7-5 5-2 3-2 10h-5l-2 4-5 3v-4l6-5-1-1h-11l-4-4-2-10-6 3h-6l2-5 2-4h-3l1-4 3-1v2h2v2l4 1 2-1 3-7 5-6 1-4-5-1 1-4h2l2-4 6-10 2-1-2 5-1 3 2 3 5-1 1-1 1-7 3-1-1 9 6 7 3 7v3l5 1v-17l2-6 4-10 1-16 2-4v-13l-1-4 5-13 1-10 6-2-2-6v-9l6-1-2-7v-7l5-6 2-4 3-16 4-13 3-20 10-2 6-2 1-4-5-3 3-3 16-4 3-4 1-3v-8l-3-3v-2z" fill="#6C7586"/>
<path transform="translate(569,1074)" d="m0 0 5 2 2 5v18l2 5 2 3v14l-5 26-15 59-11 35-7 26-6 12v7l-5 19-5 18-3 1-4-1-1 1-1 13-1 1-11 1-1 5-7 1-5 1-2 2-6-1-4-2-4 1-5-3v-2l6-1-5-5-5-4 1-4 2-2 11-1 4-6 8-1 2-2v-7l-1-5h-5l2-4 6-1 4 5 4-2 4-9 2-6 3-10 3-20 4-7 5-16 6-26 11-40 18-71 4-15 2-2z" fill="#6B7586"/>
<path transform="translate(1966,904)" d="m0 0 1 3 10 1 6 4 6 9 1 3v13l-4 9-7 8-7 3-17 1h-149l-27 1-3 8-1 6h7v1l-34 5h-3l6-23 3-14 1-9 13-1h181l7-2 4-5 4-12z" fill="#695E45"/>
<path transform="translate(1014,940)" d="m0 0 1 2-1 2-1 33-2 3h-2l-2 4-13 19-13 20-9 14-16 32-7 12-3 3-9 2-5 4-6 10-8 20v5l6 7-1 6-10 27-6 23-3 23-2 5-5 3h-5l-5-18-1-12 3-22 7-27 7-24 4-14 11-23 15-30 11-18 9-14 11-19 9-17 10-13 18-18z" fill="#6B7586"/>
<path transform="translate(298,1239)" d="m0 0 1 4-4 14-7 22-1 8-4 2-5 8-3 6-12 5-9 5-5 4-17 3-7 1-30 2h-7l-5-1-2 1-13 1h-28l-1-1h-8l-4 1h-31l-19-3-15-4-7-10-3-5v-2l8 1 3 1 11 1h32l7-2 8 2h34l5-1h7l5 1 4-2 29-1 12-2 13-3 5-5 10-5 10-2-1-5-4-2 1-4 8-4 7-3 6-5h2l2 5 5 10h2l3-11v-15l2-4 6-2z" fill="#6C7687"/>
<path transform="translate(1100,896)" d="m0 0 5 5 11 8 5 5 8 14 3 11 2 10 2 16v11l-3 14-1 19-1 8-2 4-1 11-1 1h-9l-2 9-5 5-4 5-5 10h-3l-4-8-3-1-3 9-7 14-5 2-1 3-11-2-12-3-15-15 1-3 8-2 13-1 8-17 5-6 3 2 4 8 4-1 5-12 4-5 4-9 9-1 1-14 2-7 1-20 3-13v-22l-5-26-3-6-5-8z" fill="#6C7586"/>
<path transform="translate(1888,1028)" d="m0 0 4 2 8 7 7 8 8 14 7 19 4 20 1 8v13l-4 26-5 12-6 10-9 10-8 5-8 2h-12l-10-3-9-6-4-5-3-7v-3l2-1 16-1 10-2 9-7 7-11 4-9 2-10 1-12v-33l-3-25-4-12-5-7z" fill="#695D46"/>
<path transform="translate(1767,1029)" d="m0 0h25l14 2 12 4 9 7 6 9-1 2h-54l-25 7-16 6-9 6-12 10-11 6-2 3-12-8-15-11-3-2v-2l18-10 14-11 10-7 12-5 18-4z" fill="#695D45"/>
<path transform="translate(1345,1057)" d="m0 0 4 1 2 13-3 13-7 11-7 9-14 9-20 9-21 5h-13l-4-2 1-7 6-9 12-13 15-9 9-6 15-9 24-14z" fill="#695D44"/>
<path transform="translate(1175,933)" d="m0 0h103l4 4 10 17v3l-6 1h-84l-10-2-10-9-6-9z" fill="#695E46"/>
<path transform="translate(1484,1238)" d="m0 0 9 1 12 7 8 9 1 3-9 5-6 7-10 19-6 7-10 3-11-1-11-4-8-6-8-8-1-4 27-1 2-6 9-21 6-8z" fill="#695E45"/>
<path transform="translate(944,1297)" d="m0 0 5 1 1 1 2 20-1 5-11 6-13 5-15 3-14-2-21-5-10-3-9-2-9-6-11-11-1-3 11 2 30 8 7 1h11l16-5 19-9 10-5z" fill="#6C7687"/>
<path transform="translate(1827,1193)" d="m0 0h2l15 15 6 11 1 4v15l-3 10-6 9-8 7-4 1h-14l-10-4-8-6-7-8-4-5v-2l21-1 10-5 7-10 2-6z" fill="#695E46"/>
<path transform="translate(622,910)" d="m0 0 4 2 13 12 4 6 8 22 3 10 5 14 3 7 2 11 5 8 4 20 4 13 2 3v9l5 5 4 8 2 10v13l-4 10h-2l-3-9-3-4-5-21-4-11-3-12-3-5-4-3-2-11-2-6-4-29-6-10-1-1-2-10-6-14-3-13-5-7-4-10z" fill="#6C7687"/>
<path transform="translate(826,872)" d="m0 0h10l1 1v12l-1 3v10l-3 9-10 33-18 62-7 25-5 20-5 18-4 17-4 18-6 30-1 3-1 15-3 10-4 9-3 21-8 34-7 24-5 14-5 12-9 18-1 13-2 4-8 3-5 5-7 2-3 5h-6l-3 2-5-1-14-7-4-3-5-1-1 2-3-3h-5l-3-4 1-2 9 1 8-5h6v4l-2 6 3 3 1 2 5 1 5 3 12-2 1-4 10-4 1-1-1-9-9 1-5-3 2-4 3-2 13-1 2 4v5l2 4h2l1-3 1-11 8-16 6-11 3-12 4-8 4-17 6-22 3-18 2-20 4-10 3-6 1-13 2-12 5-23 3-12 2-9 2-6 2-12 2-6 3-10 2-6 2-9 3-13 3-8 8-28 4-13 8-27 5-15 2-9 3-9 3-7v-10l3-12v-7l-9-1z" fill="#E9EFF3"/>
<path transform="translate(746,871)" d="m0 0 1 3-6 21-3 12-3 9-3 12-3 10-3 8-4 21-3 8-2 9-5 26-5 12-4 16-4 11-3 21-4 14-4 19-4 2-3-3-4-15-3-5-4-20-5-12-2-10-3-5-5-3-1-2-1-12-2-6-3-25-3-9-5-7 1-5-4-9-5-14-2-9-5-9-5-14-4-4-4-1v-5l5 2 6 7 4 13 5 8 3 6 3 13 6 13 1 8 6 9 2 10 3 21 3 9 1 8 5 5 3 6 4 15 4 12 3 14 4 6 1 7 2-1 3-9 1-9 2-1 2-7 2-16 5-13 5-19 9-37 3-11 4-17 3-13 3-10 5-19 11-36z" fill="#E9EFF3"/>
<path transform="translate(101,980)" d="m0 0 8 1 17 4h13l31-4h5l-6 11-4 12-1 1h-19l-26-7-9-9-6-3-3-4z" fill="#6D7787"/>
<path transform="translate(283,883)" d="m0 0 12 7 8 1 2 2 7-1 5 4 10 4 1 2v6l-2-1-6 2 1 7-3 12-3 8-3 15-8 11-11 12-1 2h-2l-2 4-5 7-5 10-8 11-10 14-18 24-9 13-12 18-8 15-8 11-8 13-12 20-11 19-7 10-8 13-13 29-2 5 27-1 2 2-3 2-27-1-1-4 9-20 7-15 6-11 6-9 9-14 10-17 14-23 11-15 8-16 11-16 13-19 9-12 10-15 13-18 5-10 8-10 8-8 8-10 3-9 3-12 4-12v-9l3-4h3l-1-5-10-2h-6l-3-4-11-4-9-6z" fill="#E9EFF3"/>
<path transform="translate(432,1246)" d="m0 0 2 2v22l5 2 1 3-4 1 1 3 3 2v2l-2 1h-6l2 6 1 2 5 2 1 3 3-7 4-2 4 5 2 6 1 11 5 5 4 2-1 4-7 2 1 2 9-1h3v-2h7l4 1v-10l1-2h2v3h10l-1-8-6 1v-2h-2v-5l4-5 3-2 6 1 5 5 4-7 2-7h2l2-14 3-6h1l-1 11-3 10-3 9-5 8h-4l-3-4-6 1-2 3h5l2 5v7l-3 3-8 1-4 6-11 1-4 5-3-3-9-2-5-4 1-7-4-2-5-8-4-5-8-14-3-4v-2l6-1-2-15 1-17z" fill="#E8EEF2"/>
<path transform="translate(1590,1094)" d="m0 0 16 1 13 4 15 8 14 10 14 12 11 8 7 6v2l-5-2-19-12-14-8-9-3-15-2-15-5-6-4-7-8-2-6z" fill="#6A5F48"/>
<path transform="translate(280,1208)" d="m0 0 1 3 2 1-2 1v3h2l2-5 7-1-1 4-7 5 4 4 4 3v3l-7 1-1 12h6l5-5h5l1 5-4 13-1-4 2-11-5 5-5 1-1 3v15l-3 11h-4l-3-5-2-5-1-5-11 8-9 2 3-3 10-5 3-3h2v-7h-2l-1-2 1-14 1-7 5-3 2-1v-3h-2l-2-5 4-3z" fill="#E9EFF3"/>
<path transform="translate(1020,1276)" d="m0 0h7l1 2-6 9-2 5-1 14 2 1-1 6-4 7 3 9 3 5 1 4 1-12 2-5h1l-1 22-5-1-3-8-6-8-1-4 2-6-2 1-1 7-3 3-5-1-2-4 3-6-7 11-2 3-3-1 7-11 1-6 5-2 2 1v-4h-3l-1-3v-9l2-4 4 2 2 5 3-5 5-15z" fill="#E1E7EC"/>
<path transform="translate(452,878)" d="m0 0 3 1 1 7-4 7-2 2-4 13-7 26-9 31-11 37-12 42-4 19-4 14-3 5 1 10-2 3-5 2v11l-3 14-4 6-2 2 2 2v6l-3 4v13l-4 13-2 4 1 8-5 12-3 9-1 7-1 2-1-1v-7l4-11v-5l3-1 1-8v-7l4-11 2-7v-5l-2-5 1-2h2l2-6-2-2v-5l3-3h2l1-5 1-2 1-21 5-3 2-1-1-5-2-3 4-8 1-1v-8l3-5 4-13 4-17 8-27 6-21 9-29 9-31 8-29 3-7 1-1z" fill="#E9EFF3"/>
<path transform="translate(1008,943)" d="m0 0 2 1-13 11-15 15-9 13-14 26-13 21-9 14-14 27-14 28-4 13-14 50-3 17-1 16 4 17 1 7 10-3 3 2-7 4h-7l-3-4-2-12-2-9v-14l3-21 2-7 10-32 4-17 5-13 8-16 12-23 8-14 7-11 8-13 9-15 9-17 8-12 23-23z" fill="#E9EFF3"/>
<path transform="translate(564,1064)" d="m0 0 5 1 3 6 5 4 4 10-1 5v9l6 12 2 10-3-3-2-5-2-1-1 2-2-9-2-2-1-4v-18l-1-5-5-1-2 5-3 9-8 30-15 60-10 35-6 27-5 12-2 3-1 8-2 1v-9l6-12 9-37 3-11 7-24 5-22 4-16 8-34 3-11 2-8z" fill="#E9EFF3"/>
<path transform="translate(254,1268)" d="m0 0m-3 1h3v2l-3 2-1 3 5 2 1 3-1 2-15 5-8 5-2 3-13 3-12 2-29 1-4 2-5-1h-7l-5 1h-34l-9-2-6 2h-32l-11-1-7-2h-5l-3-3 11 1 5 1h109l42-3 14-3 5-5 6-4 11-4-4-2-7 1-5-3-5-1-1-3 5-2h12z" fill="#E9EFF3"/>
<path transform="translate(1297,1282)" d="m0 0 5 5 11 6 7 8 5 10 7 18-1 4-10-8-10-13-10-16-4-12z" fill="#6A5E45"/>
<path transform="translate(432,1246)" d="m0 0 2 2v22l5 2 1 3-4 1 1 3 3 2v2l-2 1h-6l2 6 1 2 5 2 1 3 3-7 5 1 3 6v6l-1 3 6 9 4 2v2l-7 2-5-1 1-5-4-2-5-8-4-5-8-14-3-4v-2l6-1-2-15 1-17z" fill="#DBE1E6"/>
<path transform="translate(367,1212)" d="m0 0 1 4-4 6-3 4-7 20-9 27-2 4h-3l1-9v-9l-4 10 1 6-4 7v11l-6 5-8 1-6 5-8 3-2-3 7-2 4-3v-13l5-7h4l2 5 3 2v2l-4-1-2 9 8-3v-6l-1-1 1-7 4-6-2-2 1-6 6-10h3l3 8 10-32 5-9 4-5z" fill="#E9EFF3"/>
<path transform="translate(544 1e3)" d="m0 0 4 1 3 3 3 9 4 4v12l-3 11-4 5-3 1-4-4v-5h2l-2-25-1-11z" fill="#E3E9EE"/>
<path transform="translate(1110,1112)" d="m0 0 2 3-12 5-3 1 4 5v8l-3 6-4 3-14 3-2 2 5 3-2 5-6 2-10 1-1 13-3 14-4 15-1 7-5 8-2-1 5-10-7-2v-2l2-1h6l1-9 3-7 2-10 1-11h-3l2-4 7-3 12-1v-2l-4-1h-7l-2-4v-3l2-1 20-3 8-3 2-6-1-5-5-5 4-4 12-5z" fill="#E9EFF3"/>
<path transform="translate(231,1059)" d="m0 0v3l-10 15-8 15-8 11-8 13-12 20-11 19-7 10-8 13-13 29-2 5 27-1 2 2-3 2-27-1-1-4 9-20 7-15 6-11 6-9 9-14 10-17 14-23 11-15 8-16 6-8z" fill="#E9EFF3"/>
<path transform="translate(746,871)" d="m0 0 1 3-6 21-3 12-3 9-3 12-3 10-3 8-4 21-3 8-2 9-5 26-5 12-3 14h-2l1-8 5-17 9-39 4-13 4-19 3-10 5-19 11-36z" fill="#E9EFF3"/>
<path transform="translate(95,975)" d="m0 0 13 3 10 3 4 1h21l30-4 5 1 1 2-9 14 1 4-3 7-9 6-3 9-3 3 2-9 4-6 6-6 2-9 7-12-19 2-16 2h-13l-17-4-9-1z" fill="#E9EFF3"/>
<path transform="translate(452,878)" d="m0 0 3 1 1 7-4 7-2 2-4 13-7 26-9 31-11 37-7 24h-2l2-11 9-31 9-29 9-31 8-29 3-7 1-1z" fill="#E9EFF3"/>
<path transform="translate(953,1082)" d="m0 0 12 1-2 2-14 3-11 1-5 5-6 12-4 9-2 5 1 5 5 3 1 2v18l-2 1v-7l-1-5-2-1-1-6-5-5 1-8 9-21 7-9 3-2z" fill="#E9EFF3"/>
<path transform="translate(965,1288)" d="m0 0 3 1 2 18 2 8 5 2v4l-5 4-3 1-2 7h-1l-1 7h-2v-12l1-14v-25z" fill="#E9EFF3"/>
<path transform="translate(946,1295)" d="m0 0 5 1 1 2 1 17 1 9-3-1-1-17-1-7-5-1-12 5-17 9-15 5-4 1h-11l-14-3-31-8-5-2 3-1 14 3 22 6 12 2h10l18-6 16-8 12-5z" fill="#E9EFF3"/>
<path transform="translate(280,1208)" d="m0 0 1 3 2 1-2 1v3h2l2-5 7-1-1 4-7 5 4 4 4 3v3l-7 1v2h-2v6h-2l-2-4-6 3v-8l7-3-1-3-3-1-2-5 4-3z" fill="#E1E7EC"/>
<path transform="translate(445,1290)" d="m0 0 4 1 3 6v6l-1 3 6 9 4 2v2l-7 2-5-1 1-5-4-2-5-8-2-3 4-3z" fill="#6B7586"/>
<path transform="translate(1088,1029)" d="m0 0 1 2-4 10-2 2-4-1-5-9-5 5-8 17-1 1-19 2-4 2-9-7-6-8-5-6 2-2 4 6 6 7v2l4 2h9l10-2 6 1 12-21 2-2 5 1 4 9h2l3-9z" fill="#E9EFF3"/>
<path transform="translate(1043,1232)" d="m0 0h5l-4 1 2 12 1 3-3 2h-4v10l-5 13 1 4v13l-2 4-1 16-4 10-1-4 2-8 2-17 2-5v-7l-3-4 3-9 4-10v-6l-1-3 3-1h3l-2-12z" fill="#E9EFF3"/>
<path transform="translate(283,883)" d="m0 0 12 7 8 1 2 2 7-1 5 4 10 4 1 2v6l-2-1-6 1 1-2h2l-1-5-10-2h-6l-3-4-11-4-9-6z" fill="#E4EBEF"/>
<path transform="translate(1014,938)" d="m0 0 4 1-2 15v40l-2 4v-20l-2-1 1-33v-2h-3z" fill="#E9EFF3"/>
<path transform="translate(207,1273)" d="m0 0h9l3 3-1 4-6 1h-3l-3 1h-8l-1-4 5-3z" fill="#E9EFF3"/>
<path transform="translate(420,872)" d="m0 0 3 2-4 18-4 14-5 1 4-18 4-13z" fill="#E9EFF3"/>
<path transform="translate(1309,1292)" d="m0 0 4 1 7 8 5 10 3 8v5l-4-5-6-12-8-11z" fill="#6B7380"/>
<path transform="translate(446,1288)" d="m0 0 4 2 3 5 2 15 5 5 4 2-1 4-7 2 1 2h5v2h-6l-6-4-1-3 12-1v-2l-5-2-4-5-2-5 1-2v-6l-2-6-4-2z" fill="#E9EFF3"/>
<path transform="translate(746,871)" d="m0 0 1 3-6 21-3 12-3 9-2 7-3 1 2-10 8-26 5-15z" fill="#E7EDF1"/>
<path transform="translate(280,1222)" d="m0 0 6 1 4 5-1 1h-5l-1 9h-2l-2-4-6 3v-8l7-3z" fill="#6B7586"/>
<path transform="translate(964,1314)" d="m0 0h1l-1 14v13l-5-1-1-8-3-4v-2h3v-2h2l3-9z" fill="#E9EFF3"/>
<path transform="translate(965,1313)" d="m0 0 3 1 1 5 6-1v2l-5 5-2 3-1 5h-1l-1 7h-2v-12z" fill="#6D7787"/>
<path transform="translate(496,1105)" d="m0 0 4 1-1 7-1 2-1 12-4 1-2-1 1-13z" fill="#E9EFF3"/>
<path transform="translate(452,878)" d="m0 0 3 1 1 7-4 7-2 2-4 13-4 16h-2l2-12 6-20 3-5z" fill="#E9EFF3"/>
<path transform="translate(991,1330)" d="m0 0 1 2-1 2 5 1-1 6-5 5-3 7-3 1-3-2v-2h-2v-2l-4 4h-6l4-4 8-2 3 4h2l1-3h-2l1-3h2l1-3 5-3 1-2h-6v-4z" fill="#E9EFF3"/>
<path transform="translate(1094 1e3)" d="m0 0 5 2 1 5v4l4 1-7 1-4 10-4 3 3-6 1-19z" fill="#E9EFF3"/>
<path transform="translate(282,1251)" d="m0 0 2 3v13l-3 3-2-1-3-7v-5l4-5z" fill="#FDFDFD"/>
<path transform="translate(876,976)" d="m0 0 1 2-5 10-3 4-2 5-6 9-9 19-4 5h-2l2-5 12-22 14-24z" fill="#E9EFF3"/>
<path transform="translate(430,1279)" d="m0 0 1 4 3 1h-2l2 6 1 2 5 2 1 3 3-7h1l-1 9-4 3h-2l-6-11-6-9v-2z" fill="#E0E6EB"/>
<path transform="translate(295,1255)" d="m0 0 1 3-5 18-2 12 3 5 7 5v2l-4-2-8-7-2-3 1-1 2-12 6-18z" fill="#E9EFF3"/>
<path transform="translate(307,1078)" d="m0 0h1l-1 8-8 29-5 20h-1l1-9 6-26z" fill="#E9EFF3"/>
<path transform="translate(800,868)" d="m0 0 8 8 6-3-2 5-4 2-1 4-1 2h-3l-1-11-2-4z" fill="#E9EFF3"/>
<path transform="translate(1089,891)" d="m0 0 4 4 4 11 2 7-4-2-5-8-2-9z" fill="#E7EDF1"/>
<path transform="translate(1049,1075)" d="m0 0 8 1 19 5 1-3 1 4 2 1-3 1-9-3-9-2-21-2v-1z" fill="#E9EFF3"/>
<path transform="translate(592,1127)" d="m0 0 3 2 1 6-3 6-1 5h-1l-3-13 3-2z" fill="#E9EFF3"/>
<path transform="translate(550,1086)" d="m0 0 3 1 1 8-2 3h-5l1-9z" fill="#E9EFF3"/>
<path transform="translate(612,901)" d="m0 0 5 2 6 7 2 9-3-3-3-6-3-3-4-1z" fill="#C7CDD2"/>
<path transform="translate(33,1272)" d="m0 0 10 4 7 1 1 4h-9l-4-4z" fill="#D4DBE1"/>
<path transform="translate(519,915)" d="m0 0 1 3-5 23-2 9h-1v-8l6-25z" fill="#E9EFF3"/>
<path transform="translate(636,1261)" d="m0 0 5 1 1 3-5 5-2 1-3-9z" fill="#E9EFF3"/>
<path transform="translate(452,878)" d="m0 0 3 1 1 7-4 7-3-2 2-4z" fill="#DFE5EA"/>
<path transform="translate(1007,902)" d="m0 0h3l-1 4-7 3h-5l1-4z" fill="#A8B0BB"/>
<path transform="translate(746,871)" d="m0 0 1 3-6 21h-2l1-7 5-15z" fill="#E9EFF3"/>
<path transform="translate(1082,882)" d="m0 0 14 7 4 5-1 4-1-4-4-2-3-1-2-3-7-4z" fill="#E6ECF0"/>
<path transform="translate(91,1127)" d="m0 0 1 3-7 16-5 5 2-6z" fill="#E9EFF3"/>
<path transform="translate(456,1240)" d="m0 0h8v6l-1 2h-3v-4l-4-1z" fill="#AFB7C1"/>
<path transform="translate(454,1274)" d="m0 0h4l-1 4-4 4-4-1v-2h2v-2h2z" fill="#D4DAE0"/>
<path transform="translate(299,1188)" d="m0 0 4 3v3h-2v2l-5-1v-5z" fill="#DCE3E8"/>
<path transform="translate(1014,1297)" d="m0 0 1 4-3 4h-7l-1-4 2-1 4 2z" fill="#6B7586"/>
<path transform="translate(430,1279)" d="m0 0 1 4 3 1h-2l2 8-4-4-4-6v-2z" fill="#E9EFF3"/>
<path transform="translate(420,872)" d="m0 0 3 2-3 9-2 1-1-6z" fill="#DFE5EA"/>
<path transform="translate(438,1225)" d="m0 0h1v10l-2 7-4 4 3-12z" fill="#E9EFF3"/>
<path transform="translate(146,1277)" d="m0 0h10l1 3-10 1-2-1z" fill="#ADB5BF"/>
<path transform="translate(524,1011)" d="m0 0h4v6l-1 2h-4v-6z" fill="#E9EFF3"/>
<path transform="translate(497 1e3)" d="m0 0 1 4-5 11-2 5-1-4 5-12z" fill="#E9EFF3"/>
<path transform="translate(895,949)" d="m0 0v3l-9 14h-2l2-5 8-11z" fill="#E9EFF3"/>
<path transform="translate(1020,1261)" d="m0 0h6l2 4-2 2h-3l-3-4z" fill="#E1E7EC"/>
<path transform="translate(1e3 1375)" d="m0 0h2l-1 4-5 4-2-1 2-4z" fill="#737C8D"/>
<path transform="translate(23,1250)" d="m0 0 1 3 1 9 2 4-5-4-1-2v-7z" fill="#E9EFF3"/>
<path transform="translate(1063,1078)" d="m0 0 13 3 1-3 1 4 2 1-3 1-9-3-5-1z" fill="#D4DAE0"/>
<path transform="translate(458,1289)" d="m0 0 5 1 1 4-5 1-2-4z" fill="#E9EFF3"/>
<path transform="translate(239,1211)" d="m0 0 5 2 7 6-3 1-3-1-3-5z" fill="#E4EAEF"/>
<path transform="translate(915,919)" d="m0 0v3l-2 5-4 4h-2l2-4z" fill="#E9EFF3"/>
<path transform="translate(1023,1228)" d="m0 0 4 1v5h-4l-2-5z" fill="#E9EFF3"/>
<path transform="translate(1047,1216)" d="m0 0h2v9l1 1v6l-2-1-1-5-1-2v-7z" fill="#E9EFF3"/>
<path transform="translate(468,1216)" d="m0 0 4 1-1 5h-4l-1-4z" fill="#E9EFF3"/>
<path transform="translate(978,1354)" d="m0 0 1 2h2v2l-2 1-1 3h-4l2-5z" fill="#DBE1E6"/>
<path transform="translate(969,1325)" d="m0 0 1 2-1 6v7l-2 1-1-8 2-7z" fill="#E9EFF3"/>
<path transform="translate(464,1241)" d="m0 0 2 1-1 6-4 6-1-4v-2h3z" fill="#E9EFF3"/>
<path transform="translate(287,1210)" d="m0 0h5l-1 4-1 1h-5z" fill="#B1B8C2"/>
<path transform="translate(935,1160)" d="m0 0 5 2v2l5 1v2l-6-1-4-3z" fill="#E9EFF3"/>
<path transform="translate(1009,1379)" d="m0 0 1 3h-2z" fill="#848D9B"/>
</svg>
